<mxfile host="app.diagrams.net" agent="Mozilla/5.0 (Windows NT 10.0; Win64; x64) AppleWebKit/537.36 (KHTML, like Gecko) Chrome/128.0.0.0 Safari/537.36" version="24.7.7">
  <diagram name="Página-1" id="qQ7MLnVuxHwJaE8UBM9L">
    <mxGraphModel dx="683" dy="370" grid="1" gridSize="10" guides="1" tooltips="1" connect="1" arrows="1" fold="1" page="1" pageScale="1" pageWidth="827" pageHeight="1169" math="0" shadow="0">
      <root>
        <mxCell id="0" />
        <mxCell id="1" parent="0" />
        <mxCell id="m5GKkXtPH_g__4tmCgI2-1" value="&amp;lt;&amp;lt;ConsoleAppCRUD&amp;gt;&amp;gt;&lt;br&gt;Component" style="html=1;align=center;verticalAlign=top;rounded=1;absoluteArcSize=1;arcSize=10;dashed=1;whiteSpace=wrap;fillColor=#dae8fc;strokeColor=#6c8ebf;" vertex="1" parent="1">
          <mxGeometry x="220" y="100" width="420" height="440" as="geometry" />
        </mxCell>
        <mxCell id="m5GKkXtPH_g__4tmCgI2-3" value="«ConsoleAppCRUD»&lt;br&gt;&lt;b&gt;Program.cs&lt;/b&gt;&lt;div&gt;&lt;b&gt;(Presentación)&lt;/b&gt;&lt;/div&gt;" style="html=1;dropTarget=0;whiteSpace=wrap;fillColor=#1ba1e2;strokeColor=#006EAF;fontColor=#ffffff;" vertex="1" parent="1">
          <mxGeometry x="340" y="160" width="180" height="90" as="geometry" />
        </mxCell>
        <mxCell id="m5GKkXtPH_g__4tmCgI2-4" value="" style="shape=module;jettyWidth=8;jettyHeight=4;" vertex="1" parent="m5GKkXtPH_g__4tmCgI2-3">
          <mxGeometry x="1" width="20" height="20" relative="1" as="geometry">
            <mxPoint x="-27" y="7" as="offset" />
          </mxGeometry>
        </mxCell>
        <mxCell id="m5GKkXtPH_g__4tmCgI2-5" value="«ConsoleAppCRUD»&lt;br&gt;&lt;b&gt;Servicios&lt;/b&gt;&lt;br&gt;&lt;div&gt;&lt;b&gt;(FileService.cs, IFileService.cs, ServiceFactory.cs)&lt;/b&gt;&lt;/div&gt;" style="html=1;dropTarget=0;whiteSpace=wrap;fillColor=#1ba1e2;fontColor=#ffffff;strokeColor=#006EAF;" vertex="1" parent="1">
          <mxGeometry x="280" y="285" width="300" height="90" as="geometry" />
        </mxCell>
        <mxCell id="m5GKkXtPH_g__4tmCgI2-6" value="" style="shape=module;jettyWidth=8;jettyHeight=4;" vertex="1" parent="m5GKkXtPH_g__4tmCgI2-5">
          <mxGeometry x="1" width="20" height="20" relative="1" as="geometry">
            <mxPoint x="-27" y="7" as="offset" />
          </mxGeometry>
        </mxCell>
        <mxCell id="m5GKkXtPH_g__4tmCgI2-7" value="«ConsoleAppCRUD»&lt;br&gt;&lt;b&gt;Repositorios&lt;/b&gt;&lt;br&gt;&lt;div&gt;&lt;b&gt;(FileRepository.cs, IFileRepository.cs)&lt;/b&gt;&lt;/div&gt;" style="html=1;dropTarget=0;whiteSpace=wrap;fillColor=#1ba1e2;fontColor=#ffffff;strokeColor=#006EAF;" vertex="1" parent="1">
          <mxGeometry x="280" y="410" width="300" height="90" as="geometry" />
        </mxCell>
        <mxCell id="m5GKkXtPH_g__4tmCgI2-8" value="" style="shape=module;jettyWidth=8;jettyHeight=4;" vertex="1" parent="m5GKkXtPH_g__4tmCgI2-7">
          <mxGeometry x="1" width="20" height="20" relative="1" as="geometry">
            <mxPoint x="-27" y="7" as="offset" />
          </mxGeometry>
        </mxCell>
        <mxCell id="m5GKkXtPH_g__4tmCgI2-9" value="&amp;lt;&amp;lt;ClassLibraryData&amp;gt;&amp;gt;&lt;br&gt;Component" style="html=1;align=center;verticalAlign=top;rounded=1;absoluteArcSize=1;arcSize=10;dashed=1;whiteSpace=wrap;fillColor=#6d8764;fontColor=#ffffff;strokeColor=#3A5431;" vertex="1" parent="1">
          <mxGeometry x="220" y="550" width="420" height="280" as="geometry" />
        </mxCell>
        <mxCell id="m5GKkXtPH_g__4tmCgI2-10" value="«ClassLibraryData»&lt;br&gt;&lt;b&gt;AppDbContext&lt;/b&gt;" style="html=1;dropTarget=0;whiteSpace=wrap;fillColor=#a0522d;fontColor=#ffffff;strokeColor=#6D1F00;" vertex="1" parent="1">
          <mxGeometry x="250" y="610" width="140" height="80" as="geometry" />
        </mxCell>
        <mxCell id="m5GKkXtPH_g__4tmCgI2-11" value="" style="shape=module;jettyWidth=8;jettyHeight=4;" vertex="1" parent="m5GKkXtPH_g__4tmCgI2-10">
          <mxGeometry x="1" width="20" height="20" relative="1" as="geometry">
            <mxPoint x="-27" y="7" as="offset" />
          </mxGeometry>
        </mxCell>
        <mxCell id="m5GKkXtPH_g__4tmCgI2-12" value="«ClassLibraryData»&lt;br&gt;&lt;b&gt;FileEntityBuilder&lt;/b&gt;" style="html=1;dropTarget=0;whiteSpace=wrap;fillColor=#a0522d;fontColor=#ffffff;strokeColor=#6D1F00;" vertex="1" parent="1">
          <mxGeometry x="460" y="730" width="140" height="80" as="geometry" />
        </mxCell>
        <mxCell id="m5GKkXtPH_g__4tmCgI2-13" value="" style="shape=module;jettyWidth=8;jettyHeight=4;" vertex="1" parent="m5GKkXtPH_g__4tmCgI2-12">
          <mxGeometry x="1" width="20" height="20" relative="1" as="geometry">
            <mxPoint x="-27" y="7" as="offset" />
          </mxGeometry>
        </mxCell>
        <mxCell id="m5GKkXtPH_g__4tmCgI2-14" value="«ClassLibraryData»&lt;br&gt;&lt;b&gt;FileEntity&lt;/b&gt;" style="html=1;dropTarget=0;whiteSpace=wrap;fillColor=#a0522d;fontColor=#ffffff;strokeColor=#6D1F00;" vertex="1" parent="1">
          <mxGeometry x="250" y="730" width="140" height="80" as="geometry" />
        </mxCell>
        <mxCell id="m5GKkXtPH_g__4tmCgI2-15" value="" style="shape=module;jettyWidth=8;jettyHeight=4;" vertex="1" parent="m5GKkXtPH_g__4tmCgI2-14">
          <mxGeometry x="1" width="20" height="20" relative="1" as="geometry">
            <mxPoint x="-27" y="7" as="offset" />
          </mxGeometry>
        </mxCell>
        <mxCell id="m5GKkXtPH_g__4tmCgI2-16" value="" style="endArrow=classic;html=1;rounded=0;endFill=1;startArrow=none;startFill=0;" edge="1" parent="1" source="m5GKkXtPH_g__4tmCgI2-3" target="m5GKkXtPH_g__4tmCgI2-5">
          <mxGeometry width="50" height="50" relative="1" as="geometry">
            <mxPoint x="390" y="470" as="sourcePoint" />
            <mxPoint x="440" y="420" as="targetPoint" />
            <Array as="points" />
          </mxGeometry>
        </mxCell>
        <mxCell id="m5GKkXtPH_g__4tmCgI2-18" value="Llama a" style="edgeLabel;html=1;align=center;verticalAlign=middle;resizable=0;points=[];fontStyle=0;labelBorderColor=none;labelBackgroundColor=none;" vertex="1" connectable="0" parent="m5GKkXtPH_g__4tmCgI2-16">
          <mxGeometry x="-0.3197" relative="1" as="geometry">
            <mxPoint x="20" as="offset" />
          </mxGeometry>
        </mxCell>
        <mxCell id="m5GKkXtPH_g__4tmCgI2-19" value="" style="endArrow=classic;html=1;rounded=0;endFill=1;startArrow=none;startFill=0;" edge="1" parent="1">
          <mxGeometry width="50" height="50" relative="1" as="geometry">
            <mxPoint x="429.76" y="375" as="sourcePoint" />
            <mxPoint x="429.76" y="410" as="targetPoint" />
            <Array as="points" />
          </mxGeometry>
        </mxCell>
        <mxCell id="m5GKkXtPH_g__4tmCgI2-20" value="Usa" style="edgeLabel;html=1;align=center;verticalAlign=middle;resizable=0;points=[];fontStyle=0;labelBorderColor=none;labelBackgroundColor=none;" vertex="1" connectable="0" parent="m5GKkXtPH_g__4tmCgI2-19">
          <mxGeometry x="-0.3197" relative="1" as="geometry">
            <mxPoint x="10" as="offset" />
          </mxGeometry>
        </mxCell>
        <mxCell id="m5GKkXtPH_g__4tmCgI2-21" value="" style="endArrow=classic;html=1;rounded=0;" edge="1" parent="1" source="m5GKkXtPH_g__4tmCgI2-7" target="m5GKkXtPH_g__4tmCgI2-10">
          <mxGeometry width="50" height="50" relative="1" as="geometry">
            <mxPoint x="460" y="690" as="sourcePoint" />
            <mxPoint x="510" y="640" as="targetPoint" />
          </mxGeometry>
        </mxCell>
        <mxCell id="m5GKkXtPH_g__4tmCgI2-22" value="Accede a" style="edgeLabel;html=1;align=center;verticalAlign=middle;resizable=0;points=[];labelBackgroundColor=none;" vertex="1" connectable="0" parent="m5GKkXtPH_g__4tmCgI2-21">
          <mxGeometry x="0.197" relative="1" as="geometry">
            <mxPoint x="-37" y="14" as="offset" />
          </mxGeometry>
        </mxCell>
        <mxCell id="m5GKkXtPH_g__4tmCgI2-23" value="" style="endArrow=classic;html=1;rounded=0;edgeStyle=orthogonalEdgeStyle;curved=1;" edge="1" parent="1" source="m5GKkXtPH_g__4tmCgI2-7" target="m5GKkXtPH_g__4tmCgI2-14">
          <mxGeometry width="50" height="50" relative="1" as="geometry">
            <mxPoint x="415" y="510" as="sourcePoint" />
            <mxPoint x="353" y="620" as="targetPoint" />
            <Array as="points">
              <mxPoint x="490" y="770" />
            </Array>
          </mxGeometry>
        </mxCell>
        <mxCell id="m5GKkXtPH_g__4tmCgI2-24" value="Accede a" style="edgeLabel;html=1;align=center;verticalAlign=middle;resizable=0;points=[];labelBackgroundColor=none;" vertex="1" connectable="0" parent="m5GKkXtPH_g__4tmCgI2-23">
          <mxGeometry x="0.197" relative="1" as="geometry">
            <mxPoint x="-50" y="-21" as="offset" />
          </mxGeometry>
        </mxCell>
        <mxCell id="m5GKkXtPH_g__4tmCgI2-25" value="" style="endArrow=classic;html=1;rounded=0;edgeStyle=orthogonalEdgeStyle;curved=1;" edge="1" parent="1" source="m5GKkXtPH_g__4tmCgI2-7" target="m5GKkXtPH_g__4tmCgI2-12">
          <mxGeometry width="50" height="50" relative="1" as="geometry">
            <mxPoint x="500" y="510" as="sourcePoint" />
            <mxPoint x="400" y="780" as="targetPoint" />
            <Array as="points">
              <mxPoint x="600" y="455" />
              <mxPoint x="600" y="615" />
              <mxPoint x="530" y="615" />
            </Array>
          </mxGeometry>
        </mxCell>
        <mxCell id="m5GKkXtPH_g__4tmCgI2-26" value="Construye" style="edgeLabel;html=1;align=center;verticalAlign=middle;resizable=0;points=[];labelBackgroundColor=none;" vertex="1" connectable="0" parent="m5GKkXtPH_g__4tmCgI2-25">
          <mxGeometry x="0.197" relative="1" as="geometry">
            <mxPoint x="-11" y="-15" as="offset" />
          </mxGeometry>
        </mxCell>
        <mxCell id="m5GKkXtPH_g__4tmCgI2-27" value="" style="endArrow=classic;html=1;rounded=0;" edge="1" parent="1" source="m5GKkXtPH_g__4tmCgI2-10" target="m5GKkXtPH_g__4tmCgI2-14">
          <mxGeometry width="50" height="50" relative="1" as="geometry">
            <mxPoint x="460" y="690" as="sourcePoint" />
            <mxPoint x="510" y="640" as="targetPoint" />
          </mxGeometry>
        </mxCell>
        <mxCell id="m5GKkXtPH_g__4tmCgI2-28" value="Configura" style="edgeLabel;html=1;align=center;verticalAlign=middle;resizable=0;points=[];labelBackgroundColor=none;" vertex="1" connectable="0" parent="m5GKkXtPH_g__4tmCgI2-27">
          <mxGeometry x="-0.0714" y="2" relative="1" as="geometry">
            <mxPoint x="-32" as="offset" />
          </mxGeometry>
        </mxCell>
        <mxCell id="m5GKkXtPH_g__4tmCgI2-29" value="" style="endArrow=classic;html=1;rounded=0;exitX=1;exitY=0.5;exitDx=0;exitDy=0;entryX=0.387;entryY=0.03;entryDx=0;entryDy=0;entryPerimeter=0;edgeStyle=orthogonalEdgeStyle;curved=1;" edge="1" parent="1" source="m5GKkXtPH_g__4tmCgI2-10" target="m5GKkXtPH_g__4tmCgI2-12">
          <mxGeometry width="50" height="50" relative="1" as="geometry">
            <mxPoint x="330" y="700" as="sourcePoint" />
            <mxPoint x="330" y="740" as="targetPoint" />
          </mxGeometry>
        </mxCell>
        <mxCell id="m5GKkXtPH_g__4tmCgI2-30" value="Usa" style="edgeLabel;html=1;align=center;verticalAlign=middle;resizable=0;points=[];labelBackgroundColor=none;" vertex="1" connectable="0" parent="m5GKkXtPH_g__4tmCgI2-29">
          <mxGeometry x="-0.0714" y="2" relative="1" as="geometry">
            <mxPoint x="-56" y="-8" as="offset" />
          </mxGeometry>
        </mxCell>
      </root>
    </mxGraphModel>
  </diagram>
</mxfile>
